<svg xmlns="http://www.w3.org/2000/svg" viewBox="0 0 6272 1653" width="376.32" height="99.18" overflow="visible" role="img" aria-label="תאמינו, אם אפשר לקלקל אפשר גם לתקן."><path fill="#39251C" transform="translate(0,1136) scale(1,-1)" d="M47 38Q39 38 36 33L18 38Q19 39 19 44Q19 50 12 58Q6 67 6 71Q6 77 14 83Q15 82 17 78Q19 74 25 74Q27 74 32 78Q36 81 39 81Q41 81 44 76Q45 77 48 77Q59 77 59 64Q59 58 54 50Q49 42 47 38ZM210 333 214 328Q208 321 196 277Q183 233 174 193Q176 191 176 188Q176 185 172 180Q168 174 168 170Q168 168 169 167Q158 148 135 49Q130 32 126 16Q122 1 119 -10L96 -93Q27 -353 14 -360L15 -369Q15 -380 5 -404Q-5 -426 -5 -441Q-11 -450 -17 -472Q-24 -492 -29 -502Q-34 -512 -45 -518L-47 -507Q-47 -499 -36 -458Q-24 -418 -17 -396V-384Q-17 -367 -7 -362Q-5 -351 6 -324Q7 -321 12 -311Q16 -301 16 -295L15 -282Q15 -274 22 -267Q22 -259 25 -250Q28 -242 28 -237V-233L32 -230L31 -223Q41 -194 63 -110Q77 -50 91 -7L113 72L109 77Q117 77 117 85V92Q118 100 124 118Q129 136 134 145Q134 151 136 158Q139 164 139 167Q139 172 138 173Q141 173 150 204Q159 236 159 252L165 258Q164 259 163 262Q162 264 162 267Q162 273 168 282Q174 292 174 300V304Q175 306 176 311Q176 316 178 318L177 324Q177 329 180 338Q183 346 183 350V355Q184 359 186 370Q188 380 192 387Q195 394 201 394Q206 394 212 390Q217 385 217 380Q217 376 216 373Q215 370 215 366Q215 361 220 359Q213 356 212 346Q212 336 210 333ZM288 27Q285 14 277 1Q268 -14 266 -28Q258 -83 238 -134Q218 -184 183 -254Q142 -336 125 -384Q120 -400 114 -414Q107 -428 97 -444Q86 -462 76 -485Q66 -506 60 -518Q53 -531 42 -542Q39 -545 30 -556Q22 -567 20 -567Q13 -567 13 -558Q13 -554 36 -515L47 -495Q52 -485 58 -470Q64 -455 67 -447Q79 -412 90 -392Q93 -386 101 -379Q109 -372 111 -361Q116 -340 124 -322Q132 -303 148 -274Q166 -239 171 -229Q174 -222 182 -208Q200 -178 203 -158Q207 -123 218 -86Q229 -49 231 -42Q246 4 254 39Q262 74 262 110Q262 170 241 170Q238 170 230 165Q223 160 219 160Q210 160 207 166Q204 172 204 178Q203 185 203 187Q207 194 218 200Q230 205 239 205Q272 205 282 166Q292 126 292 89Q292 54 288 27ZM496 31Q485 31 478 49Q470 67 467 87Q461 81 451 70Q441 60 432 54Q423 47 413 45Q408 35 393 26Q378 17 375 15Q372 13 360 6Q348 -2 340 -10Q332 -17 329 -24Q319 -24 308 -28Q298 -33 288 -38Q284 -45 278 -48Q271 -52 259 -55Q245 -59 240 -63Q216 -73 202 -73Q191 -73 184 -64Q177 -56 177 -44Q179 -41 182 -36Q185 -30 190 -29Q191 -37 198 -42Q203 -42 208 -44Q213 -46 216 -46Q220 -46 222 -41Q223 -42 227 -42Q232 -42 238 -36Q244 -29 250 -29Q252 -29 252 -30Q253 -30 255 -30Q275 -19 318 11Q353 37 376 50Q377 53 384 59Q390 65 399 71Q423 90 434 100Q445 111 449 123H450Q455 123 460 128Q464 133 467 133L471 132Q478 136 485 136Q498 136 498 120Q498 103 505 82Q511 58 511 46Q511 31 496 31ZM979 551Q977 552 974 554Q970 555 968 557Q966 559 966 563Q966 567 956 570Q947 572 947 578L945 581Q945 586 939 587Q893 578 855 536Q817 494 791 449L779 428Q760 391 743 364Q731 346 721 320L706 290L698 285L699 279Q699 277 671 217Q664 201 648 167Q632 133 629 124Q620 118 616 102Q615 100 612 92Q608 83 600 79Q600 74 596 70Q592 66 583 46Q576 29 570 22Q565 14 556 14Q546 14 542 20Q537 27 537 35Q560 50 618 166L623 169L622 176Q624 181 626 186Q629 190 632 195Q654 232 654 243Q673 270 696 326L722 380Q771 476 822 538Q872 601 935 601Q940 603 949 604Q958 604 962 605Q967 598 972 590Q978 583 980 578Q983 573 983 565Q983 555 979 551ZM1112 113Q1109 108 1099 106Q1089 105 1082 103Q1076 101 1075 94L1072 93Q1069 93 1067 94Q1065 96 1062 96L1056 92L1051 93L1049 90Q1043 92 1038 92Q1033 92 1024 90Q1016 89 1011 88Q1002 87 974 86Q946 86 929 74Q912 63 912 38Q912 32 917 24L916 21Q916 13 921 6Q926 -1 933 -3L932 -7Q932 -12 938 -19Q945 -26 945 -29Q945 -31 940 -32Q934 -34 930 -34Q927 -34 923 -31Q919 -28 915 -28L911 -30L908 -25Q894 -2 884 10Q887 13 887 18Q887 26 882 34V50Q882 73 895 81Q895 86 899 88Q903 89 903 91Q907 97 910 100Q913 102 918 102Q935 114 964 114L992 113Q998 117 1015 117Q1029 118 1035 121Q1041 124 1041 136Q1041 167 1062 188Q1083 210 1114 210L1128 208L1148 193Q1155 183 1155 170Q1155 152 1147 142Q1139 132 1128 124Q1117 117 1112 113ZM1110 178H1101Q1093 178 1090 175Q1081 170 1074 158Q1067 146 1067 137L1068 129Q1124 140 1124 176L1120 180Q1114 178 1110 178ZM1314 103 1315 96Q1315 90 1308 85Q1302 80 1300 79V69Q1286 69 1286 62Q1286 60 1287 59Q1279 54 1255 35Q1239 21 1236 21Q1192 -19 1167 -39L1121 -86Q1115 -88 1108 -96Q1100 -105 1095 -107Q1088 -112 1078 -130Q1071 -145 1062 -152Q1062 -160 1056 -166Q1050 -171 1049 -175Q1042 -182 1038 -195L1032 -209Q1032 -229 1053 -229Q1065 -229 1072 -225Q1073 -226 1075 -228Q1077 -231 1080 -231Q1087 -229 1105 -215Q1110 -212 1118 -206Q1127 -200 1130 -200Q1135 -200 1138 -203Q1140 -206 1142 -213Q1144 -220 1149 -222Q1145 -222 1142 -221Q1139 -220 1137 -220L1134 -222L1136 -229H1133H1130Q1123 -229 1123 -234Q1123 -236 1124 -237Q1121 -236 1120 -236Q1119 -235 1119 -235Q1115 -235 1114 -240Q1112 -244 1110 -244L1108 -243Q1104 -248 1084 -254Q1064 -259 1050 -259Q1032 -259 1017 -251Q1002 -243 1002 -226Q1002 -221 1004 -210Q1006 -199 1006 -193Q1012 -187 1019 -171Q1025 -156 1033 -151Q1033 -145 1037 -140Q1041 -134 1046 -129Q1047 -128 1052 -122Q1057 -116 1057 -110Q1060 -109 1072 -98Q1083 -87 1090 -80Q1133 -37 1144 -30Q1149 -22 1154 -18Q1158 -13 1165 -11Q1165 -7 1192 13Q1240 49 1245 65Q1260 69 1273 84Q1286 99 1289 114Q1284 118 1282 129Q1280 140 1274 143Q1273 146 1268 151Q1264 156 1264 160Q1264 163 1265 164Q1261 168 1252 186Q1243 204 1243 208Q1243 215 1249 220Q1255 224 1256 225H1258Q1265 225 1270 218Q1274 211 1277 209V208Q1277 202 1282 198Q1287 195 1287 192L1285 187Q1288 175 1300 155Q1305 145 1310 134Q1315 123 1316 112L1319 109Q1314 106 1314 103ZM1606 87 1607 80Q1607 73 1600 73L1603 68Q1603 65 1599 63Q1595 61 1593 59Q1593 42 1568 23Q1561 18 1543 8Q1539 8 1534 14Q1529 20 1529 24Q1529 26 1544 40Q1559 54 1570 70Q1581 86 1581 105Q1581 115 1575 128Q1569 142 1565 142Q1562 142 1556 139Q1551 136 1547 136Q1544 136 1541 138Q1538 140 1538 143Q1538 147 1542 151Q1546 155 1546 158Q1548 160 1550 166Q1552 171 1556 174Q1560 178 1568 178Q1583 178 1598 154Q1612 131 1612 109Q1612 105 1609 98Q1606 90 1606 87ZM1769 0Q1763 3 1746 6Q1729 9 1721 17L1717 18Q1699 24 1686 95L1687 98Q1687 105 1682 109Q1677 113 1675 115L1665 118Q1636 129 1629 159Q1630 160 1633 164Q1636 168 1640 168Q1644 168 1644 164Q1645 161 1647 159L1650 160Q1655 145 1655 145L1666 144Q1666 137 1674 136Q1681 135 1682 135Q1690 138 1692 144Q1695 149 1696 159Q1698 178 1706 186Q1708 188 1708 193V198Q1708 206 1716 207Q1720 217 1722 227Q1726 244 1731 249Q1732 254 1733 256Q1734 258 1735 259L1734 264Q1743 274 1757 302Q1770 328 1780 342Q1789 355 1805 360Q1821 377 1847 377Q1865 377 1880 368Q1895 358 1899 342Q1907 337 1907 328Q1907 323 1906 318Q1904 312 1904 307Q1904 303 1906 300Q1907 297 1907 295Q1907 289 1901 281Q1901 274 1904 271Q1903 269 1896 257Q1890 245 1890 234Q1888 232 1882 228Q1875 225 1875 219L1876 213Q1870 209 1859 193Q1848 176 1837 169Q1833 161 1814 146Q1796 132 1793 132L1769 120L1771 117L1764 118Q1758 118 1748 114Q1738 110 1733 110L1722 111Q1714 111 1712 106Q1709 100 1709 90Q1709 64 1730 46Q1752 27 1775 27Q1777 27 1780 30Q1782 32 1785 32Q1789 32 1793 28L1806 30Q1828 30 1828 18L1827 12Q1820 5 1810 3Q1801 1 1789 1Q1777 1 1769 0ZM1875 297Q1875 320 1868 335Q1860 350 1844 350Q1826 350 1809 334Q1792 317 1781 297Q1770 277 1768 268Q1765 258 1757 249Q1747 231 1746 225L1747 218Q1738 207 1734 194Q1729 180 1724 158L1718 136L1724 134Q1729 134 1732 139L1736 138Q1752 138 1776 155Q1801 172 1814 187L1819 189Q1843 218 1853 232Q1863 246 1869 259Q1875 277 1875 297ZM2104 239Q2102 221 2102 214Q2102 202 2105 190Q2102 179 2098 157Q2092 127 2086 112Q2076 86 2069 53L2071 48Q2070 46 2068 44Q2067 43 2066 41Q2056 23 2042 -15Q2027 -52 2016 -73Q2004 -94 1983 -113Q1980 -122 1974 -128Q1967 -133 1966 -134Q1954 -142 1949 -154Q1939 -157 1924 -171Q1910 -185 1906 -185Q1904 -185 1903 -184Q1898 -186 1890 -190Q1881 -194 1875 -195L1837 -190Q1834 -185 1828 -177Q1821 -169 1821 -162Q1821 -158 1824 -153Q1819 -151 1819 -145L1820 -135Q1820 -128 1816 -124Q1819 -113 1820 -99Q1822 -85 1823 -79Q1825 -51 1828 -38Q1830 -32 1836 -16Q1842 -1 1843 9Q1852 18 1865 44Q1878 71 1890 86Q1902 100 1920 100Q1932 100 1937 94Q1942 89 1946 78Q1949 68 1954 66V61L1955 41Q1955 27 1949 21L1951 14Q1951 -5 1934 -22L1935 -28Q1935 -34 1930 -38Q1926 -43 1918 -48Q1911 -52 1907 -56Q1903 -56 1898 -58Q1894 -60 1891 -60Q1880 -60 1880 -46Q1883 -41 1892 -34Q1900 -28 1906 -22Q1911 -15 1911 -8Q1913 -4 1916 -4Q1918 -3 1919 -1Q1919 0 1918 1Q1917 2 1917 5Q1917 8 1920 14Q1923 21 1923 27L1925 31L1926 43Q1926 50 1920 53L1921 58Q1919 59 1916 62Q1912 66 1908 66Q1904 66 1901 60Q1898 55 1895 54L1896 50Q1889 47 1884 36Q1878 26 1874 21Q1874 16 1870 12Q1866 7 1866 4L1867 2Q1838 -40 1838 -112Q1838 -141 1853 -161L1854 -170L1861 -171Q1876 -171 1890 -164Q1903 -158 1911 -146Q1925 -143 1939 -123Q1950 -106 1960 -104Q1964 -96 1977 -83Q1987 -73 1992 -66Q1998 -58 1999 -47Q2027 -2 2033 31Q2041 39 2041 48V54Q2046 59 2049 70Q2052 82 2052 87Q2052 91 2051 95Q2050 99 2050 103L2049 107Q2058 109 2068 152Q2077 195 2077 223V232Q2079 234 2079 241Q2079 250 2076 257Q2077 260 2077 274Q2077 308 2068 339Q2060 361 2046 383Q2031 405 2018 405Q2012 405 2009 400Q2006 395 2004 388Q2001 381 1999 377V372Q1999 365 1996 358Q1992 352 1986 352Q1976 352 1976 359Q1976 364 1978 366Q1981 369 1981 371L1980 378Q1980 383 1985 385Q1986 389 1986 400Q1987 411 1991 417Q1995 420 2001 424Q2007 429 2013 432Q2019 434 2026 434H2032L2050 422Q2051 417 2058 410Q2066 404 2066 398L2078 379Q2083 376 2086 370Q2088 363 2089 356Q2093 339 2098 335L2097 326Q2097 314 2100 302Q2102 286 2102 278L2105 276L2106 266Q2106 255 2104 239ZM2257 343Q2251 331 2249 324Q2250 327 2242 295Q2236 261 2231 252Q2226 245 2223 232Q2220 220 2217 207Q2211 175 2203 158Q2201 154 2196 144Q2191 134 2188 125Q2185 116 2185 107Q2185 101 2176 92Q2168 84 2166 78Q2163 69 2154 56Q2146 42 2141 42Q2134 42 2134 53Q2134 55 2137 67Q2137 74 2140 76Q2144 79 2145 80Q2149 85 2152 98Q2155 110 2161 116V121Q2164 122 2165 125Q2166 128 2166 129Q2178 151 2190 207Q2199 248 2206 260Q2206 267 2208 274Q2210 282 2211 286Q2211 290 2214 314Q2216 338 2226 354Q2236 371 2253 371Q2257 371 2260 368Q2263 364 2266 363Q2263 353 2257 343ZM2316 59Q2309 53 2300 52Q2291 50 2278 50Q2253 50 2228 62Q2202 73 2202 95Q2202 115 2207 128Q2212 142 2228 145L2247 151Q2267 159 2278 159Q2295 159 2303 145Q2303 137 2296 134Q2288 130 2272 127Q2254 123 2244 118Q2234 112 2234 100Q2234 78 2285 78L2310 79Q2317 79 2317 72V63ZM2969 551Q2967 552 2964 554Q2960 555 2958 557Q2956 559 2956 563Q2956 567 2946 570Q2937 572 2937 578L2935 581Q2935 586 2929 587Q2883 578 2845 536Q2807 494 2781 449L2769 428Q2750 391 2733 364Q2721 346 2711 320L2696 290L2688 285L2689 279Q2689 277 2661 217Q2654 201 2638 167Q2622 133 2619 124Q2610 118 2606 102Q2605 100 2602 92Q2598 83 2590 79Q2590 74 2586 70Q2582 66 2573 46Q2566 29 2560 22Q2555 14 2546 14Q2536 14 2532 20Q2527 27 2527 35Q2550 50 2608 166L2613 169L2612 176Q2614 181 2616 186Q2619 190 2622 195Q2644 232 2644 243Q2663 270 2686 326L2712 380Q2761 476 2812 538Q2862 601 2925 601Q2930 603 2939 604Q2948 604 2952 605Q2957 598 2962 590Q2968 583 2970 578Q2973 573 2973 565Q2973 555 2969 551ZM2775 27Q2772 14 2764 1Q2755 -14 2753 -28Q2745 -83 2725 -134Q2705 -184 2670 -254Q2629 -336 2612 -384Q2607 -400 2600 -414Q2594 -428 2584 -444Q2573 -462 2563 -485Q2553 -506 2546 -518Q2540 -531 2529 -542Q2526 -545 2518 -556Q2509 -567 2507 -567Q2500 -567 2500 -558Q2500 -554 2523 -515L2534 -495Q2539 -485 2545 -470Q2551 -455 2554 -447Q2566 -412 2577 -392Q2580 -386 2588 -379Q2596 -372 2598 -361Q2603 -340 2611 -322Q2619 -303 2635 -274Q2653 -239 2658 -229Q2661 -222 2669 -208Q2687 -178 2690 -158Q2694 -123 2705 -86Q2716 -49 2718 -42Q2733 4 2741 39Q2749 74 2749 110Q2749 170 2728 170Q2725 170 2718 165Q2710 160 2706 160Q2697 160 2694 166Q2691 172 2690 178Q2690 185 2690 187Q2694 194 2706 200Q2717 205 2726 205Q2759 205 2769 166Q2779 126 2779 89Q2779 54 2775 27ZM3265 551Q3263 552 3260 554Q3256 555 3254 557Q3252 559 3252 563Q3252 567 3242 570Q3233 572 3233 578L3231 581Q3231 586 3225 587Q3179 578 3141 536Q3103 494 3077 449L3065 428Q3046 391 3029 364Q3017 346 3007 320L2992 290L2984 285L2985 279Q2985 277 2957 217Q2950 201 2934 167Q2918 133 2915 124Q2906 118 2902 102Q2901 100 2898 92Q2894 83 2886 79Q2886 74 2882 70Q2878 66 2869 46Q2862 29 2856 22Q2851 14 2842 14Q2832 14 2828 20Q2823 27 2823 35Q2846 50 2904 166L2909 169L2908 176Q2910 181 2912 186Q2915 190 2918 195Q2940 232 2940 243Q2959 270 2982 326L3008 380Q3057 476 3108 538Q3158 601 3221 601Q3226 603 3235 604Q3244 604 3248 605Q3253 598 3258 590Q3264 583 3266 578Q3269 573 3269 565Q3269 555 3265 551ZM3071 27Q3068 14 3060 1Q3051 -14 3049 -28Q3041 -83 3021 -134Q3001 -184 2966 -254Q2925 -336 2908 -384Q2903 -400 2896 -414Q2890 -428 2880 -444Q2869 -462 2859 -485Q2849 -506 2842 -518Q2836 -531 2825 -542Q2822 -545 2814 -556Q2805 -567 2803 -567Q2796 -567 2796 -558Q2796 -554 2819 -515L2830 -495Q2835 -485 2841 -470Q2847 -455 2850 -447Q2862 -412 2873 -392Q2876 -386 2884 -379Q2892 -372 2894 -361Q2899 -340 2907 -322Q2915 -303 2931 -274Q2949 -239 2954 -229Q2957 -222 2965 -208Q2983 -178 2986 -158Q2990 -123 3001 -86Q3012 -49 3014 -42Q3029 4 3037 39Q3045 74 3045 110Q3045 170 3024 170Q3021 170 3014 165Q3006 160 3002 160Q2993 160 2990 166Q2987 172 2986 178Q2986 185 2986 187Q2990 194 3002 200Q3013 205 3022 205Q3055 205 3065 166Q3075 126 3075 89Q3075 54 3071 27ZM3561 551Q3559 552 3556 554Q3552 555 3550 557Q3548 559 3548 563Q3548 567 3538 570Q3529 572 3529 578L3527 581Q3527 586 3521 587Q3475 578 3437 536Q3399 494 3373 449L3361 428Q3342 391 3325 364Q3313 346 3303 320L3288 290L3280 285L3281 279Q3281 277 3253 217Q3246 201 3230 167Q3214 133 3211 124Q3202 118 3198 102Q3197 100 3194 92Q3190 83 3182 79Q3182 74 3178 70Q3174 66 3165 46Q3158 29 3152 22Q3147 14 3138 14Q3128 14 3124 20Q3119 27 3119 35Q3142 50 3200 166L3205 169L3204 176Q3206 181 3208 186Q3211 190 3214 195Q3236 232 3236 243Q3255 270 3278 326L3304 380Q3353 476 3404 538Q3454 601 3517 601Q3522 603 3531 604Q3540 604 3544 605Q3549 598 3554 590Q3560 583 3562 578Q3565 573 3565 565Q3565 555 3561 551ZM3535 87 3536 80Q3536 73 3529 73L3532 68Q3532 65 3528 63Q3524 61 3522 59Q3522 42 3497 23Q3490 18 3472 8Q3468 8 3463 14Q3458 20 3458 24Q3458 26 3473 40Q3488 54 3499 70Q3510 86 3510 105Q3510 115 3504 128Q3498 142 3494 142Q3491 142 3486 139Q3480 136 3476 136Q3473 136 3470 138Q3467 140 3467 143Q3467 147 3471 151Q3475 155 3475 158Q3477 160 3479 166Q3481 171 3485 174Q3489 178 3497 178Q3512 178 3526 154Q3541 131 3541 109Q3541 105 3538 98Q3535 90 3535 87ZM3698 0Q3692 3 3675 6Q3658 9 3650 17L3646 18Q3628 24 3615 95L3616 98Q3616 105 3611 109Q3606 113 3604 115L3594 118Q3565 129 3558 159Q3559 160 3562 164Q3565 168 3569 168Q3573 168 3574 164Q3574 161 3576 159L3579 160Q3584 145 3584 145L3595 144Q3595 137 3602 136Q3610 135 3611 135Q3619 138 3622 144Q3624 149 3625 159Q3627 178 3635 186Q3637 188 3637 193V198Q3637 206 3645 207Q3649 217 3651 227Q3655 244 3660 249Q3661 254 3662 256Q3663 258 3664 259L3663 264Q3672 274 3686 302Q3699 328 3708 342Q3718 355 3734 360Q3750 377 3776 377Q3794 377 3809 368Q3824 358 3828 342Q3836 337 3836 328Q3836 323 3834 318Q3833 312 3833 307Q3833 303 3834 300Q3836 297 3836 295Q3836 289 3830 281Q3830 274 3833 271Q3832 269 3826 257Q3819 245 3819 234Q3817 232 3810 228Q3804 225 3804 219L3805 213Q3799 209 3788 193Q3777 176 3766 169Q3762 161 3744 146Q3725 132 3722 132L3698 120L3700 117L3693 118Q3687 118 3677 114Q3667 110 3662 110L3651 111Q3643 111 3640 106Q3638 100 3638 90Q3638 64 3660 46Q3681 27 3704 27Q3706 27 3708 30Q3711 32 3714 32Q3718 32 3722 28L3735 30Q3757 30 3757 18L3756 12Q3749 5 3740 3Q3730 1 3718 1Q3706 1 3698 0ZM3804 297Q3804 320 3796 335Q3789 350 3773 350Q3755 350 3738 334Q3721 317 3710 297Q3699 277 3697 268Q3694 258 3686 249Q3676 231 3675 225L3676 218Q3667 207 3662 194Q3658 180 3653 158L3647 136L3653 134Q3658 134 3661 139L3665 138Q3681 138 3706 155Q3730 172 3743 187L3748 189Q3772 218 3782 232Q3792 246 3798 259Q3804 277 3804 297ZM4033 239Q4031 221 4031 214Q4031 202 4034 190Q4031 179 4027 157Q4021 127 4015 112Q4005 86 3998 53L4000 48Q3999 46 3998 44Q3996 43 3995 41Q3985 23 3971 -15Q3956 -52 3944 -73Q3933 -94 3912 -113Q3909 -122 3902 -128Q3896 -133 3895 -134Q3883 -142 3878 -154Q3868 -157 3854 -171Q3839 -185 3835 -185Q3833 -185 3832 -184Q3827 -186 3818 -190Q3810 -194 3804 -195L3766 -190Q3763 -185 3756 -177Q3750 -169 3750 -162Q3750 -158 3753 -153Q3748 -151 3748 -145L3749 -135Q3749 -128 3745 -124Q3748 -113 3750 -99Q3751 -85 3752 -79Q3754 -51 3757 -38Q3759 -32 3765 -16Q3771 -1 3772 9Q3781 18 3794 44Q3807 71 3819 86Q3831 100 3849 100Q3861 100 3866 94Q3871 89 3874 78Q3878 68 3883 66V61L3884 41Q3884 27 3878 21L3880 14Q3880 -5 3863 -22L3864 -28Q3864 -34 3860 -38Q3855 -43 3848 -48Q3840 -52 3836 -56Q3832 -56 3828 -58Q3823 -60 3820 -60Q3809 -60 3809 -46Q3812 -41 3820 -34Q3829 -28 3834 -22Q3840 -15 3840 -8Q3842 -4 3844 -4Q3847 -3 3848 -1Q3848 0 3847 1Q3846 2 3846 5Q3846 8 3849 14Q3852 21 3852 27L3854 31L3855 43Q3855 50 3849 53L3850 58Q3848 59 3844 62Q3841 66 3837 66Q3833 66 3830 60Q3827 55 3824 54L3825 50Q3818 47 3812 36Q3807 26 3803 21Q3803 16 3799 12Q3795 7 3795 4L3796 2Q3767 -40 3767 -112Q3767 -141 3782 -161L3783 -170L3790 -171Q3805 -171 3818 -164Q3832 -158 3840 -146Q3854 -143 3868 -123Q3879 -106 3889 -104Q3893 -96 3906 -83Q3916 -73 3922 -66Q3927 -58 3928 -47Q3956 -2 3962 31Q3970 39 3970 48V54Q3975 59 3978 70Q3981 82 3981 87Q3981 91 3980 95Q3979 99 3979 103L3978 107Q3987 109 3996 152Q4006 195 4006 223V232Q4008 234 4008 241Q4008 250 4005 257Q4006 260 4006 274Q4006 308 3997 339Q3989 361 3974 383Q3960 405 3947 405Q3941 405 3938 400Q3935 395 3932 388Q3930 381 3928 377V372Q3928 365 3924 358Q3921 352 3915 352Q3905 352 3905 359Q3905 364 3908 366Q3910 369 3910 371L3909 378Q3909 383 3914 385Q3915 389 3916 400Q3916 411 3920 417Q3924 420 3930 424Q3936 429 3942 432Q3948 434 3955 434H3961L3979 422Q3980 417 3988 410Q3995 404 3995 398L4007 379Q4012 376 4014 370Q4017 363 4018 356Q4022 339 4027 335L4026 326Q4026 314 4029 302Q4031 286 4031 278L4034 276L4035 266Q4035 255 4033 239ZM4186 343Q4180 331 4178 324Q4179 327 4171 295Q4165 261 4160 252Q4155 245 4152 232Q4149 220 4146 207Q4140 175 4132 158Q4130 154 4125 144Q4120 134 4117 125Q4114 116 4114 107Q4114 101 4106 92Q4097 84 4095 78Q4092 69 4084 56Q4075 42 4070 42Q4063 42 4063 53Q4063 55 4066 67Q4066 74 4070 76Q4073 79 4074 80Q4078 85 4081 98Q4084 110 4090 116V121Q4093 122 4094 125Q4095 128 4095 129Q4107 151 4119 207Q4128 248 4135 260Q4135 267 4137 274Q4139 282 4140 286Q4140 290 4142 314Q4145 338 4155 354Q4165 371 4182 371Q4186 371 4189 368Q4192 364 4195 363Q4192 353 4186 343ZM4245 59Q4238 53 4229 52Q4220 50 4207 50Q4182 50 4156 62Q4131 73 4131 95Q4131 115 4136 128Q4141 142 4157 145L4176 151Q4196 159 4207 159Q4224 159 4232 145Q4232 137 4224 134Q4217 130 4201 127Q4183 123 4173 118Q4163 112 4163 100Q4163 78 4214 78L4239 79Q4246 79 4246 72V63ZM4694 113Q4691 108 4681 106Q4671 105 4664 103Q4658 101 4657 94L4654 93Q4651 93 4649 94Q4647 96 4644 96L4638 92L4633 93L4631 90Q4625 92 4620 92Q4615 92 4606 90Q4598 89 4593 88Q4584 87 4556 86Q4528 86 4511 74Q4494 63 4494 38Q4494 32 4499 24L4498 21Q4498 13 4503 6Q4508 -1 4515 -3L4514 -7Q4514 -12 4520 -19Q4527 -26 4527 -29Q4527 -31 4522 -32Q4516 -34 4512 -34Q4509 -34 4505 -31Q4501 -28 4497 -28L4493 -30L4490 -25Q4476 -2 4466 10Q4469 13 4469 18Q4469 26 4464 34V50Q4464 73 4477 81Q4477 86 4481 88Q4485 89 4485 91Q4489 97 4492 100Q4495 102 4500 102Q4517 114 4546 114L4574 113Q4580 117 4597 117Q4611 118 4617 121Q4623 124 4623 136Q4623 167 4644 188Q4665 210 4696 210L4710 208L4730 193Q4737 183 4737 170Q4737 152 4729 142Q4721 132 4710 124Q4699 117 4694 113ZM4692 178H4683Q4675 178 4672 175Q4663 170 4656 158Q4649 146 4649 137L4650 129Q4706 140 4706 176L4702 180Q4696 178 4692 178ZM4894 343Q4888 331 4886 324Q4887 327 4879 295Q4873 261 4868 252Q4863 245 4860 232Q4857 220 4854 207Q4848 175 4840 158Q4838 154 4833 144Q4828 134 4825 125Q4822 116 4822 107Q4822 101 4814 92Q4805 84 4803 78Q4800 69 4792 56Q4783 42 4778 42Q4771 42 4771 53Q4771 55 4774 67Q4774 74 4778 76Q4781 79 4782 80Q4786 85 4789 98Q4792 110 4798 116V121Q4801 122 4802 125Q4803 128 4803 129Q4815 151 4827 207Q4836 248 4843 260Q4843 267 4845 274Q4847 282 4848 286Q4848 290 4850 314Q4853 338 4863 354Q4873 371 4890 371Q4894 371 4897 368Q4900 364 4903 363Q4900 353 4894 343ZM4953 59Q4946 53 4937 52Q4928 50 4915 50Q4890 50 4864 62Q4839 73 4839 95Q4839 115 4844 128Q4849 142 4865 145L4884 151Q4904 159 4915 159Q4932 159 4940 145Q4940 137 4932 134Q4925 130 4909 127Q4891 123 4881 118Q4871 112 4871 100Q4871 78 4922 78L4947 79Q4954 79 4954 72V63ZM5192 16Q5192 13 5190 10Q5187 8 5187 4Q5185 0 5178 -18Q5171 -36 5162 -48Q5152 -61 5141 -61Q5140 -61 5138 -61Q5136 -61 5135 -60Q5134 -58 5134 -55Q5134 -46 5144 -34Q5155 -21 5165 -14Q5170 8 5178 33Q5186 58 5194 58Q5200 57 5200 50Q5200 48 5200 47Q5199 46 5199 45Q5199 42 5196 40Q5194 39 5192 16ZM5348 194 5350 185Q5345 185 5342 177L5346 158L5345 136Q5339 134 5336 128Q5332 121 5330 115L5332 111Q5328 111 5327 108Q5326 104 5325 102Q5325 82 5308 46Q5303 36 5291 16Q5289 9 5282 6Q5274 3 5271 0H5265L5266 11L5265 22Q5270 22 5274 30Q5277 38 5279 40L5275 47L5279 46L5282 51Q5282 54 5281 56Q5280 57 5279 59Q5289 69 5296 82Q5302 94 5302 106Q5302 115 5296 119Q5306 122 5308 130Q5311 138 5312 154L5308 159Q5308 162 5312 166Q5315 171 5315 173L5313 178Q5315 181 5316 188Q5317 195 5317 198Q5319 214 5322 221Q5325 228 5336 228Q5343 228 5347 221Q5351 214 5353 211Q5348 203 5348 194ZM5438 19Q5435 9 5416 -34Q5397 -76 5390 -91L5378 -114Q5363 -145 5350 -163Q5338 -181 5317 -192L5291 -208Q5273 -221 5259 -228Q5245 -235 5227 -235Q5212 -235 5202 -230Q5191 -224 5191 -210Q5191 -208 5186 -206Q5182 -205 5182 -202V-190L5191 -172Q5199 -172 5204 -177Q5208 -182 5213 -192Q5218 -203 5223 -203Q5252 -203 5284 -185Q5316 -167 5328 -140Q5330 -135 5333 -134Q5336 -132 5338 -130Q5353 -116 5362 -95Q5372 -74 5380 -46Q5381 -40 5391 -23Q5399 -11 5401 -4Q5419 47 5432 111Q5436 125 5438 153Q5440 181 5443 195Q5444 199 5444 208L5443 225V229Q5443 241 5446 251Q5448 265 5448 272Q5448 278 5445 290Q5442 301 5442 307Q5442 315 5453 322Q5464 330 5474 330Q5480 330 5486 321Q5491 312 5491 305Q5491 245 5475 160Q5459 76 5438 19ZM5581 174 5582 164Q5582 159 5578 156Q5578 134 5566 118Q5555 103 5536 89Q5535 90 5531 90H5522Q5515 90 5515 97Q5519 110 5532 118Q5541 144 5549 152L5547 157Q5547 160 5549 165Q5551 170 5551 172L5548 177Q5552 178 5553 184Q5554 189 5556 192Q5558 196 5566 196Q5577 196 5583 182ZM5847 149Q5803 90 5794 71L5785 53Q5772 25 5761 7Q5750 -11 5742 -11L5736 -8Q5730 -11 5723 -11Q5712 -11 5712 -4Q5712 -1 5714 2Q5715 5 5715 8Q5715 35 5712 62Q5709 89 5702 89Q5691 89 5683 81Q5675 73 5664 58Q5649 38 5638 28Q5626 17 5608 16L5604 19Q5604 32 5610 40Q5616 48 5630 59Q5639 66 5644 71Q5648 76 5648 83Q5660 87 5679 110Q5688 120 5698 128Q5707 137 5713 137Q5723 137 5724 130Q5724 124 5728 118Q5732 112 5732 109Q5732 88 5736 77L5735 69Q5739 68 5740 62Q5742 56 5746 55L5755 59Q5771 91 5792 120Q5812 149 5850 196L5847 198L5850 204Q5857 206 5862 214Q5866 223 5869 226L5867 229Q5868 234 5873 244Q5878 253 5884 261Q5893 269 5897 284Q5901 296 5906 302Q5906 306 5910 310Q5915 315 5915 318L5917 326L5916 329L5919 328Q5923 328 5929 340Q5935 352 5941 352Q5953 352 5958 338Q5958 317 5930 273Q5903 229 5847 149ZM6008 343Q6002 331 6000 324Q6001 327 5993 295Q5987 261 5982 252Q5977 245 5974 232Q5971 220 5968 207Q5962 175 5954 158Q5952 154 5947 144Q5942 134 5939 125Q5936 116 5936 107Q5936 101 5928 92Q5919 84 5917 78Q5914 69 5906 56Q5897 42 5892 42Q5885 42 5885 53Q5885 55 5888 67Q5888 74 5892 76Q5895 79 5896 80Q5900 85 5903 98Q5906 110 5912 116V121Q5915 122 5916 125Q5917 128 5917 129Q5929 151 5941 207Q5950 248 5957 260Q5957 267 5959 274Q5961 282 5962 286Q5962 290 5964 314Q5967 338 5977 354Q5987 371 6004 371Q6008 371 6011 368Q6014 364 6017 363Q6014 353 6008 343ZM6067 59Q6060 53 6051 52Q6042 50 6029 50Q6004 50 5978 62Q5953 73 5953 95Q5953 115 5958 128Q5963 142 5979 145L5998 151Q6018 159 6029 159Q6046 159 6054 145Q6054 137 6046 134Q6039 130 6023 127Q6005 123 5995 118Q5985 112 5985 100Q5985 78 6036 78L6061 79Q6068 79 6068 72V63ZM6234 31Q6223 31 6216 49Q6208 67 6205 87Q6199 81 6189 70Q6179 60 6170 54Q6161 47 6151 45Q6146 35 6131 26Q6116 17 6113 15Q6110 13 6098 6Q6086 -2 6078 -10Q6070 -17 6067 -24Q6057 -24 6046 -28Q6036 -33 6026 -38Q6022 -45 6016 -48Q6009 -52 5997 -55Q5983 -59 5978 -63Q5954 -73 5940 -73Q5929 -73 5922 -64Q5915 -56 5915 -44Q5917 -41 5920 -36Q5923 -30 5928 -29Q5929 -37 5936 -42Q5941 -42 5946 -44Q5951 -46 5954 -46Q5958 -46 5960 -41Q5961 -42 5965 -42Q5970 -42 5976 -36Q5982 -29 5988 -29Q5990 -29 5990 -30Q5991 -30 5993 -30Q6013 -19 6056 11Q6091 37 6114 50Q6115 53 6122 59Q6128 65 6137 71Q6161 90 6172 100Q6183 111 6187 123H6188Q6193 123 6198 128Q6202 133 6205 133L6209 132Q6216 136 6223 136Q6236 136 6236 120Q6236 103 6243 82Q6249 58 6249 46Q6249 31 6234 31Z"/></svg>